<svg width="25" height="24" viewBox="0 0 25 24" fill="none" xmlns="http://www.w3.org/2000/svg">
    <path d="M21.5312 8.25H10.5312M5.28125 8.25H3.53125" stroke="#111111" stroke-width="1.5"/>
    <path d="M8.03125 6C7.73578 6 7.44319 6.0582 7.17021 6.17127C6.89723 6.28434 6.64919 6.45008 6.44026 6.65901C6.23133 6.86794 6.06559 7.11598 5.95252 7.38896C5.83945 7.66194 5.78125 7.95453 5.78125 8.25C5.78125 8.54547 5.83945 8.83806 5.95252 9.11104C6.06559 9.38402 6.23133 9.63206 6.44026 9.84099C6.64919 10.0499 6.89723 10.2157 7.17021 10.3287C7.44319 10.4418 7.73578 10.5 8.03125 10.5C8.62799 10.5 9.20028 10.2629 9.62224 9.84099C10.0442 9.41903 10.2812 8.84674 10.2812 8.25C10.2812 7.65326 10.0442 7.08097 9.62224 6.65901C9.20028 6.23705 8.62799 6 8.03125 6Z" stroke="#111111" stroke-width="1.5"/>
    <path d="M3.53125 15.75H14.2812M19.2812 15.75H21.5312" stroke="#111111" stroke-width="1.5"/>
    <path d="M17.0312 13.5C16.4345 13.5 15.8622 13.7371 15.4403 14.159C15.0183 14.581 14.7812 15.1533 14.7812 15.75C14.7812 16.3467 15.0183 16.919 15.4403 17.341C15.8622 17.7629 16.4345 18 17.0312 18C17.628 18 18.2003 17.7629 18.6222 17.341C19.0442 16.919 19.2812 16.3467 19.2812 15.75C19.2812 15.1533 19.0442 14.581 18.6222 14.159C18.2003 13.7371 17.628 13.5 17.0312 13.5Z" stroke="#111111" stroke-width="1.5"/>
</svg>
