<svg width="24" height="24" viewBox="0 0 19 18" fill="none" xmlns="http://www.w3.org/2000/svg">
    <path d="M11.8839 13.296C10.8379 13.9224 9.64108 14.2521 8.42188 14.25C7.53528 14.2512 6.65718 14.0772 5.83806 13.7379C5.01894 13.3986 4.27496 12.9008 3.64888 12.273C3.02111 11.6469 2.52328 10.9029 2.18399 10.0838C1.84471 9.26471 1.67067 8.38661 1.67188 7.50001C1.67188 5.63601 2.42688 3.94901 3.64888 2.72701C4.27496 2.09924 5.01894 1.6014 5.83806 1.26212C6.65718 0.922837 7.53528 0.748797 8.42188 0.750006C10.2859 0.750006 11.9729 1.50501 13.1949 2.72701C13.8227 3.35308 14.3205 4.09707 14.6598 4.91618C14.9991 5.7353 15.1731 6.6134 15.1719 7.50001C15.1736 8.69741 14.8557 9.87357 14.2509 10.907C13.7339 11.789 13.8169 12.895 14.5399 13.618L18.3929 17.471" stroke="#111111" strokeWidth="1.5"/>
</svg>